<svg xmlns="http://www.w3.org/2000/svg" width="11.917" height="23.998" viewBox="0 0 11.917 23.998"><defs><style>.a{fill:#a435f0;}</style></defs><g transform="translate(-179.5 -136)"><path d="M0,8.1H3.121V15.98A2.844,2.844,0,1,0,8.8,15.953V8.1h3.121v8.063a5.43,5.43,0,0,1-1.7,4.313,6.251,6.251,0,0,1-4.282,1.474A6.139,6.139,0,0,1,1.676,20.48,5.362,5.362,0,0,1,0,16.247Z" transform="translate(179.5 138.044)"/><path class="a" d="M11.916,7.146,5.958,3.573,0,7.146V3.573L5.959,0l5.959,3.573V7.146Z" transform="translate(179.5 136)"/></g></svg>